<?xml version="1.0" standalone="no"?>
<!DOCTYPE svg PUBLIC "-//W3C//DTD SVG 20010904//EN"
 "http://www.w3.org/TR/2001/REC-SVG-20010904/DTD/svg10.dtd">
<svg version="1.0" xmlns="http://www.w3.org/2000/svg"
 width="674.000000pt" height="674.000000pt" viewBox="0 0 674.000000 674.000000"
 preserveAspectRatio="xMidYMid meet">
<metadata>
Created by potrace 1.14, written by Peter Selinger 2001-2017
</metadata>
<g transform="translate(0.000000,674.000000) scale(0.100000,-0.100000)"
fill="#000000" stroke="none">
<path d="M2227 6543 c-4 -4 -15 -8 -25 -9 -36 -6 -102 -27 -102 -33 0 -4 -16
-13 -35 -20 -19 -7 -64 -40 -99 -74 -62 -60 -146 -173 -146 -196 0 -6 -5 -11
-10 -11 -6 0 -9 -3 -8 -7 1 -5 -11 -34 -25 -67 -15 -32 -27 -60 -27 -62 0 -1
-5 -15 -12 -31 -6 -15 -12 -35 -14 -44 -2 -9 -9 -29 -15 -45 -15 -37 -21 -62
-23 -94 0 -14 -4 -27 -7 -30 -10 -8 -26 -171 -18 -176 4 -2 6 -12 4 -22 -4
-27 34 -114 63 -145 15 -16 43 -37 64 -46 l36 -18 5 81 c5 86 8 104 20 124 5
6 6 16 3 21 -4 5 -3 11 1 13 5 1 23 32 40 68 18 36 53 91 78 122 42 54 47 57
77 51 18 -3 34 -9 36 -13 1 -3 44 -5 95 -4 127 3 189 28 273 114 19 19 34 40
34 46 0 6 9 19 19 28 18 17 20 15 44 -36 14 -30 29 -67 33 -83 4 -17 9 -34 13
-40 11 -19 16 -116 8 -160 -10 -58 -38 -135 -48 -135 -6 0 -8 -4 -5 -8 3 -5
-19 -40 -47 -78 -70 -92 -134 -153 -327 -309 -52 -43 -115 -94 -139 -114 -49
-40 -254 -242 -286 -281 -38 -47 -105 -152 -105 -165 0 -7 -6 -18 -13 -24 -8
-6 -22 -37 -32 -68 -11 -32 -23 -63 -27 -69 -5 -7 -11 -25 -13 -40 -3 -16 -10
-49 -16 -74 -12 -50 -20 -290 -9 -290 3 0 12 -35 18 -77 7 -42 16 -80 20 -83
4 -3 15 -30 26 -60 23 -70 129 -229 198 -299 61 -62 211 -181 227 -181 6 0 11
-4 11 -10 0 -5 6 -10 14 -10 8 0 21 -6 28 -13 22 -23 198 -103 298 -137 52
-18 102 -35 110 -38 33 -12 228 -55 310 -67 22 -4 173 -17 190 -18 26 0 36
-15 39 -58 1 -23 6 -49 10 -58 5 -9 12 -44 15 -77 3 -34 11 -95 16 -135 6 -41
13 -103 16 -139 3 -36 7 -78 10 -95 8 -51 14 -229 17 -475 l3 -236 -54 -39
c-29 -22 -59 -45 -65 -50 -7 -6 -82 -63 -167 -127 -85 -64 -165 -126 -177
-137 -12 -12 -27 -21 -33 -21 -5 0 -10 -4 -10 -9 0 -4 -19 -21 -42 -37 -24
-16 -45 -31 -48 -35 -3 -3 -23 -18 -45 -34 -59 -43 -143 -110 -204 -163 -101
-88 -137 -216 -113 -399 19 -141 69 -278 121 -327 30 -29 48 -23 55 19 3 17
15 49 26 73 18 37 40 86 45 102 1 3 4 12 8 20 7 20 26 81 34 111 14 57 8 195
-11 253 l-19 59 34 29 c19 16 44 37 55 48 12 11 26 20 32 20 6 0 12 3 14 8 2
4 30 28 63 54 33 26 68 54 78 62 9 9 17 14 17 11 0 -3 10 4 23 15 12 12 74 60
137 108 63 47 145 110 182 139 37 29 71 53 75 53 5 0 8 -20 7 -45 -1 -25 1
-47 5 -49 8 -5 7 -1258 -2 -1272 -6 -10 75 -54 100 -54 6 0 11 12 11 28 1 15
4 338 7 717 3 380 6 709 7 733 2 42 4 45 87 106 98 71 131 94 326 223 77 51
145 97 152 103 7 5 15 10 17 10 3 0 30 16 60 35 30 19 59 35 65 35 5 0 11 4
13 8 3 8 73 47 208 117 19 10 42 19 50 20 63 6 91 19 124 55 20 22 36 41 36
43 16 102 9 136 -34 181 -34 34 -86 56 -136 56 -14 0 -51 16 -83 35 -32 19
-62 35 -68 35 -5 0 -9 5 -9 10 0 6 -4 10 -10 10 -11 0 -60 30 -265 164 -77 50
-149 99 -160 109 -11 10 -32 25 -47 33 -16 8 -28 18 -28 23 0 5 -10 11 -22 15
-31 7 -14 20 47 36 46 11 170 52 205 67 8 3 17 7 20 8 3 1 22 9 42 18 21 10
42 17 47 17 5 0 11 4 13 8 4 10 75 51 194 113 75 39 204 88 249 95 6 0 12 2
15 3 16 8 88 14 180 14 132 0 172 -3 188 -16 6 -5 12 -7 12 -4 0 3 32 -5 71
-18 99 -34 215 -104 297 -180 65 -60 92 -74 73 -36 -5 9 -12 38 -16 65 -3 26
-15 80 -25 119 -10 39 -17 74 -14 78 2 4 0 10 -5 13 -5 3 -12 22 -15 41 -14
73 -114 347 -156 426 -4 8 -21 40 -36 70 -15 30 -30 56 -33 59 -4 3 -13 19
-22 35 -21 40 -42 75 -56 94 -175 238 -302 366 -473 476 -124 81 -326 175
-375 175 -8 0 -15 5 -15 11 0 6 -7 9 -15 6 -8 -4 -17 -2 -20 3 -3 5 -13 9 -23
9 -9 0 -37 5 -62 10 -126 30 -353 30 -495 1 -51 -11 -98 -19 -125 -21 -8 -1
-17 -5 -20 -9 -3 -3 -28 -11 -57 -18 -51 -11 -89 -26 -209 -83 -192 -91 -415
-289 -562 -501 -17 -25 -32 -49 -32 -52 0 -3 -11 -21 -24 -41 -23 -33 -106
-196 -113 -220 -17 -64 -40 -110 -49 -101 -6 6 -24 23 -40 38 -80 74 -122 188
-111 302 8 72 15 115 24 136 3 8 7 18 8 23 2 4 4 9 5 12 1 3 4 10 5 15 1 6 4
12 5 15 1 3 3 8 4 13 7 33 142 270 166 292 3 3 14 18 24 34 18 28 174 223 204
255 145 153 222 239 222 246 0 3 5 11 10 18 38 45 50 62 71 104 13 27 27 50
32 51 4 2 7 8 7 13 0 5 11 32 25 61 14 28 23 54 20 56 -3 3 0 10 5 17 33 39
56 312 36 428 -17 103 -71 243 -116 302 -20 25 -90 96 -115 115 -51 39 -236
115 -249 103 -3 -3 -11 -1 -18 4 -15 12 -130 17 -141 6z m1183 -3512 c47 -34
112 -81 145 -103 33 -23 62 -45 63 -50 2 -4 10 -8 18 -8 8 0 14 -4 14 -8 0 -4
12 -15 28 -24 15 -9 38 -27 52 -40 14 -13 84 -63 155 -111 183 -123 185 -125
189 -173 2 -23 -2 -47 -8 -55 -6 -8 -60 -47 -121 -88 -120 -81 -301 -204 -380
-259 -27 -20 -51 -39 -53 -44 -2 -4 -8 -8 -12 -8 -8 0 -169 -109 -215 -145
-31 -25 -35 -8 -50 210 -3 55 -9 118 -12 140 -3 22 -7 103 -9 180 -2 77 -5
165 -8 195 -11 139 -19 215 -30 295 -18 134 -18 155 1 156 70 4 117 9 121 14
3 3 10 1 16 -4 6 -5 49 -36 96 -70z"/>
</g>
</svg>
